<svg id="Capa_1" data-name="Capa 1" xmlns="http://www.w3.org/2000/svg" viewBox="0 0 201 146"><defs><style>.cls-1{fill:#252651;}.cls-2{fill:#544595;}.cls-3{fill:none;stroke:#252651;stroke-miterlimit:10;stroke-width:2px;}</style></defs><path class="cls-1" d="M67.84,91.8c-1.38,0-2.62-.06-3.86,0s-2-.24-1.86-1.66c0-.19-.15-.41-.29-.78a8.8,8.8,0,0,1-5.57,3A9.79,9.79,0,0,1,46,87a13.11,13.11,0,0,1,.3-12.25A9.76,9.76,0,0,1,61,71.86c.26.2.53.38,1.08.77V61.73h5.72ZM50.44,81.18a17.23,17.23,0,0,0,.46,2.49c.65,2,1.7,3.66,4,4.14A5.74,5.74,0,0,0,60.69,86a7.85,7.85,0,0,0,.56-9.11A5.83,5.83,0,0,0,53,75.42C51.09,76.85,50.77,79,50.44,81.18Z"/><path class="cls-1" d="M173.15,81.14c0,6.18-4.65,11.19-10.31,11.17-8.76,0-13.09-3.82-13.05-11.44,0-6.31,5.16-11.12,11.81-11.19C167.3,69.61,173.56,74.05,173.15,81.14Zm-5.64.07c0-.34,0-.68,0-1a6.28,6.28,0,0,0-4-5.51,5.77,5.77,0,0,0-6.29,1.49c-2.58,2.54-2.54,7.75.17,10.16a6.06,6.06,0,0,0,3.3,1.44C164.93,88.12,167.56,85.48,167.51,81.21Z"/><path class="cls-1" d="M123.3,82.46H119c-3.4,0-6.81,0-10.21,0-1.11,0-1.38.39-1.11,1.42a5.92,5.92,0,0,0,9.64,2.81A2.72,2.72,0,0,1,121,86.3c.56.29,1.15.54,2,.92a8.52,8.52,0,0,1-3.49,3.64c-4.47,2.73-12.69,2-15.92-3.3-4.25-7-.51-16.13,6.81-17.65C119.69,68,124.65,75.74,123.3,82.46Zm-5.23-3.62c-.28-3-1.94-4.81-4.63-5-2.47-.22-4.52,1.35-5.37,3.94-.32,1-.06,1.35,1,1.34,2.69,0,5.39,0,8.08,0A4.24,4.24,0,0,0,118.07,78.84Z"/><path class="cls-1" d="M132.08,70.37l.24,2.07c.59-.43,1-.8,1.51-1.12a8.89,8.89,0,0,1,9.21-.8c3,1.44,4.18,4.17,4.21,7.33,0,4.07,0,8.14,0,12.21v1.72H141.7c0-2.26,0-4.56,0-6.86s-.08-4.54-.35-6.79a4.29,4.29,0,0,0-4.51-3.83,4.36,4.36,0,0,0-4.35,4.33c-.13,3.87-.2,7.74-.18,11.61,0,1.28-.39,1.66-1.71,1.62-4.57-.14-3.85.49-3.89-3.81,0-5.42,0-10.85-.07-16.27,0-1.06.27-1.5,1.43-1.43S130.64,70.37,132.08,70.37Z"/><path class="cls-1" d="M99.06,75.91c-.88.13-1.76.29-2.65.39-1.14.12-2.09.14-2.78-1.2-.84-1.62-4.16-1.93-5.66-.78s-1.16,2.88.64,3.56,3.52,1,5.29,1.49a13.51,13.51,0,0,1,2,.62c2.07,1,3.64,2.33,3.87,4.75a5.88,5.88,0,0,1-3,6.16c-4.09,2.35-8.26,2-12.43.2a4.89,4.89,0,0,1-1.3-1,5.15,5.15,0,0,1-1.91-3.92c1.49-.25,3-.54,4.46-.72.2,0,.6.47.68.78.75,2.61,5.28,3.13,7.34,1.64,1.46-1.05,1.13-2.94-.69-3.68A43.26,43.26,0,0,0,88.48,83a23.62,23.62,0,0,1-3.13-1c-2.13-.92-3.58-2.35-3.75-4.8-.2-2.76.63-5.09,3.23-6.35a11.57,11.57,0,0,1,11.67.54A5.42,5.42,0,0,1,99.06,75.91Z"/><path class="cls-1" d="M78.16,70.37V81.78c0,2.91-.06,5.81,0,8.72,0,1-.34,1.35-1.25,1.37-1.15,0-2.29.09-3.44,0s-.93-.83-.94-1.5c-.06-5.43-.12-10.85-.15-16.28,0-3.76,0-3.76,3.94-3.77Z"/><path class="cls-1" d="M129.81,67.56c.13-4.24,2.81-6,6.38-4.5.68.28,1.32.68,2,1a2.14,2.14,0,0,0,2.79-.64c.46-.61,2.93-1,3.5-.48a1.41,1.41,0,0,1,.19,1.16c-.55,2.12-3.14,4.27-6.85,3.11a23.31,23.31,0,0,0-3.19-.71,3.24,3.24,0,0,0-1.16.19C132.29,66.93,131.11,67.23,129.81,67.56Z"/><path class="cls-2" d="M78.82,64.68c0,2.09-1.36,3.33-3.63,3.31A3,3,0,0,1,72,64.66a3.05,3.05,0,0,1,3.22-3.34A3.34,3.34,0,0,1,78.82,64.68Z"/><path class="cls-1" d="M60,37.84,53.38,40a2,2,0,0,1-.32-.35c-2.3-4.75-6-5.57-10.48-5.12a9,9,0,0,0-8,7.42c-1.23,6.08.64,11.51,7.09,13.32,5.17,1.45,9.18-.48,12.13-5.64l6.24,2.56c-2.57,7.23-10.2,10.08-17.51,9.52C32.4,61,26.31,53.4,26.82,44.05c.41-7.38,5.16-14.81,14.73-15.88S57.23,31.06,60,37.84Z"/><path class="cls-1" d="M111.54,50.41H94.39c-.43,2,1,4.3,3.2,5.38,2.8,1.36,6,.54,8.63-2.32l4.9,2.27a10.72,10.72,0,0,1-6.66,5.32c-6.79,2-14.79-.93-16.45-8.56-1.23-5.67.34-11.24,5.38-14.49a12,12,0,0,1,12.12-.6c4.18,2,5.63,5.67,6,9.88C111.61,48.24,111.54,49.21,111.54,50.41Zm-17-4.31h10.66a4.79,4.79,0,0,0-4.26-4.91C97.42,40.85,94.92,42.72,94.52,46.1Z"/><path class="cls-1" d="M163.33,50.38H146a5.59,5.59,0,0,0,3.49,5.53c2.78,1.13,5.85.23,8.27-2.43l4.77,2.26a10.83,10.83,0,0,1-7.29,5.38c-7.07,1.74-13.6-1.89-15.43-8.6-1.49-5.46.47-11.44,4.88-14.39,6-4,17.16-2.41,18.29,7.8C163.1,47.32,163.19,48.71,163.33,50.38ZM146.18,46h10.75a5.35,5.35,0,0,0-5.44-5.11C148.72,40.85,146.6,43,146.18,46Z"/><path class="cls-1" d="M137.63,44.08l-6.24,1.25c-.71-1.84-1.7-3.36-3.82-3.74a5.69,5.69,0,0,0-5.83,2.13,9,9,0,0,0-.38,9.72c2.46,3.62,7,3.74,9.57.16a1.68,1.68,0,0,1,2.06-.77c1.44.36,2.9.64,4.35,1-.39,3.15-3.75,6.61-7.52,7.43-8.94,1.93-16.1-3.62-16.2-11.95-.08-6.3,3.79-10.85,7.78-12.27,5.87-2.1,12.43-.59,15.15,4.5C137,42.25,137.22,43.07,137.63,44.08Z"/><path class="cls-2" d="M62.35,36.54a16.07,16.07,0,0,1,4.13.79,10.4,10.4,0,0,1,6.81,6.55,10.2,10.2,0,0,1,.62,3.28,1.25,1.25,0,0,0,.18.65A12.78,12.78,0,0,1,75.52,51c.18-.55.58-1,.53-1.65a9.58,9.58,0,0,1,1-5.1,10.88,10.88,0,0,1,7.17-5.75c.95-.27,2-.37,3-.57,0,.54,0,1-.1,1.41a12,12,0,0,1-2.51,5.84,12.48,12.48,0,0,1-5.87,4,5.26,5.26,0,0,1-1,.32,1.26,1.26,0,0,0-1.16,1,10.9,10.9,0,0,0-.82,4.25c0,1.58.17,3.16.27,4.74,0,.45,0,.54-.5.55s-.45-.15-.45-.45c0-1.52-.09-3.05-.11-4.58,0-1.06.1-2.13,0-3.18a8.51,8.51,0,0,0-1.35-3.57c-.11-.18-.48-.24-.74-.29-5.1-1-8.51-3.85-10.06-8.69a13.88,13.88,0,0,1-.39-1.94A6.06,6.06,0,0,1,62.35,36.54Z"/><path class="cls-3" d="M26.81,98.12l146.7.58"/><path class="cls-2" d="M26.91,112a.4.4,0,0,1,.15-.27.38.38,0,0,1,.25-.09h1.14a.45.45,0,0,1,.27.1.31.31,0,0,1,.11.27,3.51,3.51,0,0,1-.29,1.11,2.78,2.78,0,0,1-.75,1,4,4,0,0,1-1.27.73,5.44,5.44,0,0,1-1.87.29,5,5,0,0,1-1.71-.28,3.49,3.49,0,0,1-1.26-.78,3.36,3.36,0,0,1-.81-1.18,5,5,0,0,1-.34-1.51q0-.53,0-1.14t0-1.14a4.84,4.84,0,0,1,.34-1.51,3.4,3.4,0,0,1,.81-1.19,3.47,3.47,0,0,1,1.26-.77,4.79,4.79,0,0,1,1.71-.28,5.46,5.46,0,0,1,1.87.28,4,4,0,0,1,1.27.74,2.78,2.78,0,0,1,.75,1,3.51,3.51,0,0,1,.29,1.11.3.3,0,0,1-.11.26.39.39,0,0,1-.27.1H27.31a.43.43,0,0,1-.26-.09.36.36,0,0,1-.16-.26,1.36,1.36,0,0,0-.19-.53,1.83,1.83,0,0,0-.42-.46,2.28,2.28,0,0,0-.68-.34,3.33,3.33,0,0,0-1-.12,2.52,2.52,0,0,0-.95.16,2,2,0,0,0-.68.43,1.63,1.63,0,0,0-.42.66,2.66,2.66,0,0,0-.18.8q0,.51,0,1.14t0,1.14a2.66,2.66,0,0,0,.18.81,1.62,1.62,0,0,0,.42.64,2,2,0,0,0,.68.44,2.52,2.52,0,0,0,.95.16,3,3,0,0,0,1-.13,2.53,2.53,0,0,0,.68-.33,1.55,1.55,0,0,0,.43-.46A1.64,1.64,0,0,0,26.91,112Z"/><path class="cls-2" d="M30.34,109.69a2,2,0,0,1,.26-.61,2.4,2.4,0,0,1,.58-.62,3,3,0,0,1,.91-.46,3.69,3.69,0,0,1,1.25-.19,4,4,0,0,1,1.29.19,2.76,2.76,0,0,1,1,.53,2.31,2.31,0,0,1,.64.89,3.17,3.17,0,0,1,.22,1.23v4a.38.38,0,0,1-.37.37H35a.38.38,0,0,1-.38-.37v-.44a2.37,2.37,0,0,1-.85.67,3.21,3.21,0,0,1-1.41.28,3.31,3.31,0,0,1-1.08-.16,2.16,2.16,0,0,1-.79-.44,1.82,1.82,0,0,1-.5-.67,2,2,0,0,1-.18-.85,1.74,1.74,0,0,1,.69-1.47,4.13,4.13,0,0,1,1.84-.72l2.28-.38a.85.85,0,0,0-.38-.79,1.79,1.79,0,0,0-.94-.23,1.16,1.16,0,0,0-.54.1,1.51,1.51,0,0,0-.38.26,1.11,1.11,0,0,1-.23.15.85.85,0,0,1-.23,0H30.65a.36.36,0,0,1-.24-.09A.2.2,0,0,1,30.34,109.69Zm2.34,3.83a2.71,2.71,0,0,0,.85-.13,1.91,1.91,0,0,0,.63-.35,1.48,1.48,0,0,0,.38-.49,1.33,1.33,0,0,0,.12-.55v-.14l-1.91.33a2,2,0,0,0-.82.27.59.59,0,0,0-.25.5.44.44,0,0,0,.3.42A1.68,1.68,0,0,0,32.68,113.52Z"/><path class="cls-2" d="M40.75,112.46a.93.93,0,0,0,.23.67,1.13,1.13,0,0,0,.86.25h.86a.36.36,0,0,1,.26.11.33.33,0,0,1,.11.26v.89a.38.38,0,0,1-.37.37h-1a3,3,0,0,1-2-.62,2.38,2.38,0,0,1-.71-1.89v-2.92H38a.4.4,0,0,1-.27-.11.36.36,0,0,1-.11-.26v-.89A.38.38,0,0,1,38,108h.92v-2.22a.32.32,0,0,1,.12-.25.33.33,0,0,1,.26-.11h1.07a.36.36,0,0,1,.27.11.34.34,0,0,1,.11.25V108h1.81a.38.38,0,0,1,.37.37v.89a.33.33,0,0,1-.11.26.36.36,0,0,1-.26.11H40.75Z"/><path class="cls-2" d="M44.45,109.69a1.75,1.75,0,0,1,.26-.61,2.35,2.35,0,0,1,.57-.62,3.11,3.11,0,0,1,.91-.46,3.71,3.71,0,0,1,1.26-.19,4,4,0,0,1,1.29.19,2.94,2.94,0,0,1,1,.53,2.42,2.42,0,0,1,.64.89,3.17,3.17,0,0,1,.22,1.23v4a.38.38,0,0,1-.38.37H49.15a.33.33,0,0,1-.27-.11.33.33,0,0,1-.11-.26v-.44a2.46,2.46,0,0,1-.85.67,3.21,3.21,0,0,1-1.41.28,3.31,3.31,0,0,1-1.08-.16,2.21,2.21,0,0,1-.8-.44,2.07,2.07,0,0,1-.5-.67A2.15,2.15,0,0,1,44,113a1.74,1.74,0,0,1,.69-1.47,4.09,4.09,0,0,1,1.83-.72l2.29-.38a.87.87,0,0,0-.38-.79,1.82,1.82,0,0,0-.94-.23,1.2,1.2,0,0,0-.55.1,1.72,1.72,0,0,0-.38.26.9.9,0,0,1-.23.15.79.79,0,0,1-.23,0h-1.3a.32.32,0,0,1-.24-.09A.18.18,0,0,1,44.45,109.69Zm2.34,3.83a2.76,2.76,0,0,0,.85-.13,1.86,1.86,0,0,0,.62-.35,1.36,1.36,0,0,0,.38-.49,1.2,1.2,0,0,0,.13-.55v-.14l-1.91.33a2.05,2.05,0,0,0-.83.27.62.62,0,0,0-.25.5.44.44,0,0,0,.3.42A1.73,1.73,0,0,0,46.79,113.52Zm1.08-8.37a.77.77,0,0,1,.26-.22,1,1,0,0,1,.26,0h1.33a.24.24,0,0,1,.27.27.26.26,0,0,1-.07.17l-1.73,1.37a1,1,0,0,1-.24.16.68.68,0,0,1-.35.07h-.77a.19.19,0,0,1-.22-.22.27.27,0,0,1,.07-.17Z"/><path class="cls-2" d="M54.28,114.64a.38.38,0,0,1-.38.37H52.83a.38.38,0,0,1-.37-.37v-8.91a.31.31,0,0,1,.11-.25.33.33,0,0,1,.26-.11H53.9a.36.36,0,0,1,.27.11.34.34,0,0,1,.11.25Z"/><path class="cls-2" d="M59.42,107.81a4.11,4.11,0,0,1,1.4.23,3.4,3.4,0,0,1,1.08.64,3.22,3.22,0,0,1,.73.95,2.9,2.9,0,0,1,.31,1.17,2.54,2.54,0,0,1,0,.31v.76a2.36,2.36,0,0,1,0,.3,3.09,3.09,0,0,1-.32,1.17,3.19,3.19,0,0,1-.72,1,3.57,3.57,0,0,1-1.08.63,4.11,4.11,0,0,1-1.4.23,4.05,4.05,0,0,1-1.39-.23,3.57,3.57,0,0,1-1.08-.63,3,3,0,0,1-.72-1,3.29,3.29,0,0,1-.33-1.17c0-.08,0-.18,0-.3v-.76c0-.12,0-.23,0-.31a3.09,3.09,0,0,1,.32-1.17,3.22,3.22,0,0,1,.73-.95A3.4,3.4,0,0,1,58,108,4.05,4.05,0,0,1,59.42,107.81Zm1.7,3.06a1.87,1.87,0,0,0-.2-.7,1.31,1.31,0,0,0-.4-.44,1.43,1.43,0,0,0-.52-.23,2.79,2.79,0,0,0-1.15,0,1.43,1.43,0,0,0-.52.23,1.31,1.31,0,0,0-.4.44,1.7,1.7,0,0,0-.2.7,1.87,1.87,0,0,0,0,.27c0,.11,0,.22,0,.34s0,.23,0,.35a1.61,1.61,0,0,0,0,.26,1.7,1.7,0,0,0,.2.7,1.31,1.31,0,0,0,.4.44,1.43,1.43,0,0,0,.52.23,2.79,2.79,0,0,0,1.15,0,1.43,1.43,0,0,0,.52-.23,1.31,1.31,0,0,0,.4-.44,2.07,2.07,0,0,0,.21-1v-.69A2.1,2.1,0,0,0,61.12,110.87Z"/><path class="cls-2" d="M67.74,116.37a2.08,2.08,0,0,0,.6-.09,1.64,1.64,0,0,0,.56-.28,1.4,1.4,0,0,0,.42-.48,1.45,1.45,0,0,0,.16-.68v-.51l-.3.27a2.56,2.56,0,0,1-.44.26,3.48,3.48,0,0,1-.6.21,3.67,3.67,0,0,1-.78.08,2.92,2.92,0,0,1-1.27-.27,3,3,0,0,1-1-.7,3.79,3.79,0,0,1-.63-1,3.85,3.85,0,0,1-.26-1.2c0-.14,0-.3,0-.48s0-.34,0-.48a3.85,3.85,0,0,1,.26-1.2,3.79,3.79,0,0,1,.63-1,3,3,0,0,1,1-.7,2.92,2.92,0,0,1,1.27-.27,3.67,3.67,0,0,1,.78.08,3.48,3.48,0,0,1,.6.21,2.56,2.56,0,0,1,.44.26l.3.27v-.31a.33.33,0,0,1,.11-.26.33.33,0,0,1,.27-.11h1.06a.38.38,0,0,1,.38.37v6.37a3.12,3.12,0,0,1-1,2.47,3.79,3.79,0,0,1-2.61.84,4.7,4.7,0,0,1-1.33-.18,4.08,4.08,0,0,1-1-.49,2.83,2.83,0,0,1-.72-.7,1.45,1.45,0,0,1-.29-.79.29.29,0,0,1,.1-.26.4.4,0,0,1,.27-.11h1a.49.49,0,0,1,.33.13,2.69,2.69,0,0,1,.24.24,1.41,1.41,0,0,0,.5.38A2.44,2.44,0,0,0,67.74,116.37Zm-1.68-5.27a3.22,3.22,0,0,0,0,.76,1.62,1.62,0,0,0,1.72,1.66,1.72,1.72,0,0,0,1.16-.4,1.6,1.6,0,0,0,.54-1.12,4.52,4.52,0,0,0,0-1,1.64,1.64,0,0,0-.54-1.11,1.73,1.73,0,0,0-1.16-.41,1.62,1.62,0,0,0-1.72,1.66Z"/><path class="cls-2" d="M76.45,107.81a4.05,4.05,0,0,1,1.39.23,3.4,3.4,0,0,1,1.08.64,3.22,3.22,0,0,1,.73.95A3.09,3.09,0,0,1,80,110.8c0,.08,0,.19,0,.31v.76c0,.12,0,.22,0,.3a3.29,3.29,0,0,1-.33,1.17,3,3,0,0,1-.72,1,3.57,3.57,0,0,1-1.08.63,4.05,4.05,0,0,1-1.39.23,4.11,4.11,0,0,1-1.4-.23,3.57,3.57,0,0,1-1.08-.63,3.19,3.19,0,0,1-.72-1,3.09,3.09,0,0,1-.32-1.17,2.36,2.36,0,0,1,0-.3c0-.13,0-.25,0-.38s0-.25,0-.38a2.54,2.54,0,0,1,0-.31,2.9,2.9,0,0,1,.31-1.17,3.22,3.22,0,0,1,.73-.95,3.4,3.4,0,0,1,1.08-.64A4.11,4.11,0,0,1,76.45,107.81Zm1.69,3.06a1.7,1.7,0,0,0-.2-.7,1.31,1.31,0,0,0-.4-.44,1.43,1.43,0,0,0-.52-.23,2.79,2.79,0,0,0-1.15,0,1.43,1.43,0,0,0-.52.23,1.31,1.31,0,0,0-.4.44,2.45,2.45,0,0,0-.22,1c0,.11,0,.22,0,.34s0,.23,0,.35a1.61,1.61,0,0,0,0,.26,1.87,1.87,0,0,0,.2.7,1.31,1.31,0,0,0,.4.44,1.43,1.43,0,0,0,.52.23,2.79,2.79,0,0,0,1.15,0,1.43,1.43,0,0,0,.52-.23,1.31,1.31,0,0,0,.4-.44,1.7,1.7,0,0,0,.2-.7,1.61,1.61,0,0,0,0-.26v-.69A1.87,1.87,0,0,0,78.14,110.87Z"/><path class="cls-2" d="M87.58,107.81a3.67,3.67,0,0,1,.78.08,3.48,3.48,0,0,1,.6.21,2.56,2.56,0,0,1,.44.26l.3.27v-2.9a.31.31,0,0,1,.11-.25.33.33,0,0,1,.26-.11h1.07a.36.36,0,0,1,.27.11.34.34,0,0,1,.11.25v8.91a.38.38,0,0,1-.38.37H90.07a.38.38,0,0,1-.37-.37v-.31l-.3.27a2.56,2.56,0,0,1-.44.26,3.48,3.48,0,0,1-.6.21,3.67,3.67,0,0,1-.78.08,2.92,2.92,0,0,1-1.27-.27,3,3,0,0,1-1-.7,3.79,3.79,0,0,1-.63-1,3.85,3.85,0,0,1-.26-1.2c0-.14,0-.3,0-.48s0-.34,0-.48a3.85,3.85,0,0,1,.26-1.2,3.79,3.79,0,0,1,.63-1,3,3,0,0,1,1-.7A2.92,2.92,0,0,1,87.58,107.81Zm-1.3,3.29a3.22,3.22,0,0,0,0,.76A1.62,1.62,0,0,0,88,113.52a1.72,1.72,0,0,0,1.16-.4A1.6,1.6,0,0,0,89.7,112a6.77,6.77,0,0,0,0-1,1.64,1.64,0,0,0-.54-1.11,1.73,1.73,0,0,0-1.16-.41,1.62,1.62,0,0,0-1.72,1.66Z"/><path class="cls-2" d="M93.09,111.48a4.21,4.21,0,0,1,.24-1.43,3.42,3.42,0,0,1,.69-1.17,3.16,3.16,0,0,1,1.08-.78,3.47,3.47,0,0,1,1.42-.29,3.65,3.65,0,0,1,1.43.28,3.37,3.37,0,0,1,1.08.75,3.23,3.23,0,0,1,.7,1.1,3.68,3.68,0,0,1,.24,1.32v.61a.33.33,0,0,1-.11.26.36.36,0,0,1-.26.11H94.91a1.1,1.1,0,0,0,.14.55,1.12,1.12,0,0,0,.35.4,1.79,1.79,0,0,0,.52.25,2.47,2.47,0,0,0,.6.08,2.41,2.41,0,0,0,.73-.09,1.58,1.58,0,0,0,.47-.22.78.78,0,0,1,.25-.15.64.64,0,0,1,.27,0h1.12a.39.39,0,0,1,.27.1.31.31,0,0,1,.11.26,1.18,1.18,0,0,1-.22.49,2.44,2.44,0,0,1-.61.58,3.88,3.88,0,0,1-1,.49,4.19,4.19,0,0,1-1.39.21,3.63,3.63,0,0,1-1.42-.27,3,3,0,0,1-1.08-.75,3.38,3.38,0,0,1-.69-1.16A4.44,4.44,0,0,1,93.09,111.48Zm3.43-2a1.78,1.78,0,0,0-.69.12,1.45,1.45,0,0,0-.48.3,1.27,1.27,0,0,0-.3.4,1.65,1.65,0,0,0-.14.43h3.17a2.63,2.63,0,0,0-.1-.43,1.15,1.15,0,0,0-.26-.4,1.19,1.19,0,0,0-.46-.3A1.94,1.94,0,0,0,96.52,109.44Z"/><path class="cls-2" d="M106.72,114.9a.87.87,0,0,1-.16-.23l-2.81-6.26a.29.29,0,0,1,0-.09.38.38,0,0,1,.38-.37h1a.37.37,0,0,1,.31.11.69.69,0,0,1,.15.21l1.87,4.22,1.86-4.22a1,1,0,0,1,.16-.21.37.37,0,0,1,.31-.11h1.05a.38.38,0,0,1,.38.37.29.29,0,0,1,0,.09l-2.81,6.26a.87.87,0,0,1-.16.23.37.37,0,0,1-.31.11H107A.37.37,0,0,1,106.72,114.9Z"/><path class="cls-2" d="M114.09,105.37a.33.33,0,0,1,.27.11.31.31,0,0,1,.11.25v1.06a.33.33,0,0,1-.11.26.37.37,0,0,1-.27.11h-1.2a.4.4,0,0,1-.27-.11.36.36,0,0,1-.11-.26v-1.06a.34.34,0,0,1,.11-.25.36.36,0,0,1,.27-.11Zm.31,9.27a.33.33,0,0,1-.11.26.33.33,0,0,1-.27.11H113a.38.38,0,0,1-.38-.37v-6.32A.38.38,0,0,1,113,108H114a.33.33,0,0,1,.27.11.33.33,0,0,1,.11.26Z"/><path class="cls-2" d="M123.18,114.64a.38.38,0,0,1-.38.37h-1.06a.33.33,0,0,1-.27-.11.33.33,0,0,1-.11-.26v-3.45a2,2,0,0,0-.4-1.3,1.43,1.43,0,0,0-1.2-.49,1.45,1.45,0,0,0-1.17.49,1.89,1.89,0,0,0-.43,1.3v3.45a.38.38,0,0,1-.38.37h-1.06a.33.33,0,0,1-.27-.11.33.33,0,0,1-.11-.26v-6.32a.33.33,0,0,1,.11-.26.33.33,0,0,1,.27-.11h1.06a.38.38,0,0,1,.38.37v.31A3.12,3.12,0,0,1,119,108a2.73,2.73,0,0,1,1.16-.23,3.51,3.51,0,0,1,1.43.26,2.52,2.52,0,0,1,.93.69,2.69,2.69,0,0,1,.49,1,4.78,4.78,0,0,1,.15,1.21Z"/><path class="cls-2" d="M126.52,111a3.86,3.86,0,0,0,0,1,1.9,1.9,0,0,0,.19.72,1.5,1.5,0,0,0,.9.75,1.9,1.9,0,0,0,.58.09,2.35,2.35,0,0,0,.58-.06,1.4,1.4,0,0,0,.41-.15,1.73,1.73,0,0,0,.29-.23c.08-.09.15-.19.23-.3a2.12,2.12,0,0,1,.2-.24.34.34,0,0,1,.26-.12h1.07a.36.36,0,0,1,.27.11.28.28,0,0,1,.11.25,1.93,1.93,0,0,1-.21.7,2.68,2.68,0,0,1-.61.78,3.5,3.5,0,0,1-1.06.63,4.21,4.21,0,0,1-1.54.26,3.78,3.78,0,0,1-1.39-.25,3.74,3.74,0,0,1-1.08-.68,3.28,3.28,0,0,1-.71-1,3.82,3.82,0,0,1-.32-1.19c0-.17,0-.35,0-.55s0-.38,0-.55a3.55,3.55,0,0,1,.31-1.2,3.3,3.3,0,0,1,1.79-1.68,3.88,3.88,0,0,1,1.4-.25,4.21,4.21,0,0,1,1.54.26,3.5,3.5,0,0,1,1.06.63,2.68,2.68,0,0,1,.61.78,2,2,0,0,1,.21.7.28.28,0,0,1-.11.25.36.36,0,0,1-.27.11h-1.07a.34.34,0,0,1-.26-.12,2.12,2.12,0,0,1-.2-.24c-.08-.11-.15-.21-.23-.3a1.73,1.73,0,0,0-.29-.23,1.4,1.4,0,0,0-.41-.15,2.35,2.35,0,0,0-.58-.06,1.9,1.9,0,0,0-.58.09,1.5,1.5,0,0,0-.9.75A1.9,1.9,0,0,0,126.52,111Z"/><path class="cls-2" d="M133.07,108.32a.38.38,0,0,1,.37-.37h1.07a.38.38,0,0,1,.38.37v3.45a2.15,2.15,0,0,0,.36,1.3,1.32,1.32,0,0,0,1.17.49,1.35,1.35,0,0,0,1.13-.49,2,2,0,0,0,.39-1.3v-3.45a.34.34,0,0,1,.12-.26.33.33,0,0,1,.26-.11h1.07a.38.38,0,0,1,.38.37v6.32a.38.38,0,0,1-.38.37h-1.07a.33.33,0,0,1-.26-.11.34.34,0,0,1-.12-.26v-.31a3.49,3.49,0,0,1-.79.57,2.57,2.57,0,0,1-1.15.25,3.43,3.43,0,0,1-1.42-.26,2.41,2.41,0,0,1-.9-.69,2.66,2.66,0,0,1-.47-1,4.78,4.78,0,0,1-.14-1.21Z"/><path class="cls-2" d="M143.53,114.64a.34.34,0,0,1-.12.26.33.33,0,0,1-.26.11h-1.07a.38.38,0,0,1-.38-.37v-8.91a.34.34,0,0,1,.11-.25.36.36,0,0,1,.27-.11h1.07a.33.33,0,0,1,.26.11.32.32,0,0,1,.12.25Z"/><path class="cls-2" d="M145.46,109.69a1.75,1.75,0,0,1,.26-.61,2.35,2.35,0,0,1,.57-.62,3.17,3.17,0,0,1,.92-.46,3.65,3.65,0,0,1,1.25-.19,4,4,0,0,1,1.29.19,2.94,2.94,0,0,1,1,.53,2.42,2.42,0,0,1,.64.89,3.17,3.17,0,0,1,.22,1.23v4a.36.36,0,0,1-.11.26.35.35,0,0,1-.27.11h-1.06a.35.35,0,0,1-.27-.11.36.36,0,0,1-.11-.26v-.44a2.46,2.46,0,0,1-.85.67,3.21,3.21,0,0,1-1.41.28,3.31,3.31,0,0,1-1.08-.16,2.21,2.21,0,0,1-.8-.44,2.07,2.07,0,0,1-.5-.67A2.15,2.15,0,0,1,145,113a1.74,1.74,0,0,1,.69-1.47,4.09,4.09,0,0,1,1.83-.72l2.29-.38a.87.87,0,0,0-.38-.79,1.82,1.82,0,0,0-.94-.23,1.2,1.2,0,0,0-.55.1,1.47,1.47,0,0,0-.37.26,1.14,1.14,0,0,1-.24.15.79.79,0,0,1-.23,0h-1.3a.36.36,0,0,1-.24-.09A.18.18,0,0,1,145.46,109.69Zm2.34,3.83a2.76,2.76,0,0,0,.85-.13,1.76,1.76,0,0,0,.62-.35,1.36,1.36,0,0,0,.38-.49,1.2,1.2,0,0,0,.13-.55v-.14l-1.91.33a2.05,2.05,0,0,0-.83.27.62.62,0,0,0-.25.5.44.44,0,0,0,.3.42A1.73,1.73,0,0,0,147.8,113.52Z"/><path class="cls-2" d="M154.94,111a3.86,3.86,0,0,0,0,1,1.9,1.9,0,0,0,.2.72,1.53,1.53,0,0,0,.38.48,1.67,1.67,0,0,0,.51.27,1.9,1.9,0,0,0,.58.09,2.49,2.49,0,0,0,.59-.06,1.34,1.34,0,0,0,.4-.15,1.4,1.4,0,0,0,.29-.23,2.37,2.37,0,0,0,.23-.3,2.12,2.12,0,0,1,.2-.24.34.34,0,0,1,.26-.12h1.07a.36.36,0,0,1,.27.11.28.28,0,0,1,.11.25,1.93,1.93,0,0,1-.21.7,2.68,2.68,0,0,1-.61.78,3.5,3.5,0,0,1-1.06.63,4.17,4.17,0,0,1-1.54.26,3.78,3.78,0,0,1-1.39-.25,3.56,3.56,0,0,1-1.07-.68,3.15,3.15,0,0,1-.72-1,3.55,3.55,0,0,1-.31-1.19,5.06,5.06,0,0,1,0-1.1,3.31,3.31,0,0,1,.3-1.2,3.4,3.4,0,0,1,.72-1,3.56,3.56,0,0,1,1.07-.68,3.88,3.88,0,0,1,1.4-.25,4.17,4.17,0,0,1,1.54.26,3.5,3.5,0,0,1,1.06.63,2.68,2.68,0,0,1,.61.78,2,2,0,0,1,.21.7.28.28,0,0,1-.11.25.36.36,0,0,1-.27.11h-1.07a.34.34,0,0,1-.26-.12,2.12,2.12,0,0,1-.2-.24,2.37,2.37,0,0,0-.23-.3,1.4,1.4,0,0,0-.29-.23,1.34,1.34,0,0,0-.4-.15,2.49,2.49,0,0,0-.59-.06,1.9,1.9,0,0,0-.58.09,1.67,1.67,0,0,0-.51.27,1.53,1.53,0,0,0-.38.48A1.9,1.9,0,0,0,154.94,111Z"/><path class="cls-2" d="M163.07,105.37a.36.36,0,0,1,.27.11.34.34,0,0,1,.11.25v1.06a.36.36,0,0,1-.11.26.4.4,0,0,1-.27.11h-1.2a.37.37,0,0,1-.27-.11.33.33,0,0,1-.11-.26v-1.06a.31.31,0,0,1,.11-.25.33.33,0,0,1,.27-.11Zm.31,9.27a.38.38,0,0,1-.38.37h-1.06a.33.33,0,0,1-.27-.11.33.33,0,0,1-.11-.26v-6.32a.33.33,0,0,1,.11-.26.33.33,0,0,1,.27-.11H163a.38.38,0,0,1,.38.37Z"/><path class="cls-2" d="M168.53,107.81a4.09,4.09,0,0,1,1.39.23,3.4,3.4,0,0,1,1.08.64,3.22,3.22,0,0,1,.73.95,3.09,3.09,0,0,1,.32,1.17c0,.08,0,.19,0,.31v.76c0,.12,0,.22,0,.3a3.29,3.29,0,0,1-.33,1.17,3,3,0,0,1-.72,1,3.57,3.57,0,0,1-1.08.63,4.35,4.35,0,0,1-2.79,0,3.57,3.57,0,0,1-1.08-.63,3.19,3.19,0,0,1-.72-1,3.09,3.09,0,0,1-.32-1.17,2.36,2.36,0,0,1,0-.3c0-.13,0-.25,0-.38s0-.25,0-.38a2.54,2.54,0,0,1,0-.31,2.9,2.9,0,0,1,.31-1.17,3.22,3.22,0,0,1,.73-.95,3.4,3.4,0,0,1,1.08-.64A4.11,4.11,0,0,1,168.53,107.81Zm1.69,3.06a1.7,1.7,0,0,0-.2-.7,1.31,1.31,0,0,0-.4-.44,1.43,1.43,0,0,0-.52-.23,2.79,2.79,0,0,0-1.15,0,1.43,1.43,0,0,0-.52.23,1.31,1.31,0,0,0-.4.44,1.7,1.7,0,0,0-.2.7,1.87,1.87,0,0,0,0,.27c0,.11,0,.22,0,.34s0,.23,0,.35a1.61,1.61,0,0,0,0,.26,1.7,1.7,0,0,0,.2.7,1.31,1.31,0,0,0,.4.44,1.43,1.43,0,0,0,.52.23,2.79,2.79,0,0,0,1.15,0,1.43,1.43,0,0,0,.52-.23,1.31,1.31,0,0,0,.4-.44,1.7,1.7,0,0,0,.2-.7,1.61,1.61,0,0,0,0-.26v-.69A1.87,1.87,0,0,0,170.22,110.87ZM169,105.15a.77.77,0,0,1,.26-.22,1,1,0,0,1,.26,0h1.33a.24.24,0,0,1,.27.27.26.26,0,0,1-.07.17l-1.73,1.37a1,1,0,0,1-.24.16.68.68,0,0,1-.35.07H168a.19.19,0,0,1-.22-.22.27.27,0,0,1,.07-.17Z"/><path class="cls-2" d="M180.5,114.64a.38.38,0,0,1-.38.37h-1.06a.33.33,0,0,1-.27-.11.33.33,0,0,1-.11-.26v-3.45a2,2,0,0,0-.4-1.3,1.43,1.43,0,0,0-1.2-.49,1.45,1.45,0,0,0-1.17.49,1.89,1.89,0,0,0-.43,1.3v3.45a.38.38,0,0,1-.38.37H174a.33.33,0,0,1-.27-.11.33.33,0,0,1-.11-.26v-6.32a.33.33,0,0,1,.11-.26A.33.33,0,0,1,174,108h1.06a.38.38,0,0,1,.38.37v.31a3.12,3.12,0,0,1,.86-.59,2.73,2.73,0,0,1,1.16-.23,3.51,3.51,0,0,1,1.43.26,2.4,2.4,0,0,1,.92.69,2.57,2.57,0,0,1,.5,1,4.78,4.78,0,0,1,.15,1.21Z"/></svg>