<svg id="Capa_1" data-name="Capa 1" xmlns="http://www.w3.org/2000/svg" viewBox="0 0 1920 495"><defs><style>.cls-1{fill:#252651;}.cls-2{opacity:0.3;}.cls-3{fill:#376eb4;}</style></defs><rect class="cls-1" x="-0.01" y="-0.14" width="497.21" height="496.3"/><rect class="cls-1" x="495.67" y="0.02" width="497.21" height="496.3"/><rect class="cls-1" x="990.99" y="-0.14" width="497.21" height="496.3"/><rect class="cls-1" x="1486.67" y="0.02" width="436" height="496.3"/><g class="cls-2"><path class="cls-3" d="M641.87,311.88c-.07,16.94-10.76,27-28.54,26.85-16-.12-25.19-10-25.17-27,0-16.68,9.64-27,25.27-27.13C630,284.42,641.94,295.87,641.87,311.88Z"/><path class="cls-3" d="M512.33,83.47c11.43.92,22.13,2.69,32.48,6.38,26.19,9.34,44.45,26.72,53.58,53.2a84,84,0,0,1,4.81,26.64,11,11,0,0,0,1.43,5.25,104.53,104.53,0,0,1,11.25,25.7c1.42-4.45,4.58-8,4.16-13.37a80.9,80.9,0,0,1,7.53-41.43c11.49-24.25,31.06-39.15,56.41-46.62,7.49-2.2,15.39-3,23.77-4.59-.3,4.34-.32,7.9-.83,11.4-2.54,17.46-8.78,33.44-19.69,47.42-12.06,15.46-27.88,25.59-46.18,32.11-2.73,1-5.47,2.32-8.29,2.57-5.29.48-7.42,3.64-9.07,8.15-4.08,11.16-6.86,22.57-6.48,34.48.41,12.83,1.35,25.64,2.11,38.46.22,3.71-.35,4.39-3.88,4.46-2.55.06-3.53-1.22-3.58-3.62-.28-12.38-.7-24.76-.87-37.14-.11-8.62.8-17.32,0-25.86-1-10.41-5.27-20-10.65-29-.86-1.43-3.74-1.91-5.78-2.33-40.08-8.17-66.89-31.24-79.12-70.55-1.58-5.07-2.17-10.46-3-15.73A41.07,41.07,0,0,1,512.33,83.47Z"/></g><g class="cls-2"><path class="cls-3" d="M818.33,184.41c.07-16.94,10.76-27,28.54-26.85,16,.13,25.19,10,25.17,27,0,16.68-9.64,27-25.27,27.13C830.18,211.87,818.26,200.43,818.33,184.41Z"/><path class="cls-3" d="M947.87,412.83c-11.43-.92-22.13-2.69-32.48-6.38-26.19-9.34-44.45-26.73-53.58-53.2A84,84,0,0,1,857,326.61a11,11,0,0,0-1.43-5.26,104.36,104.36,0,0,1-11.25-25.7c-1.42,4.46-4.58,8-4.16,13.37a80.89,80.89,0,0,1-7.53,41.43c-11.49,24.26-31.06,39.16-56.41,46.62-7.49,2.21-15.39,3-23.77,4.6.3-4.34.32-7.91.83-11.41,2.54-17.46,8.78-33.44,19.69-47.42,12.06-15.46,27.88-25.59,46.18-32.1,2.73-1,5.47-2.32,8.29-2.58,5.29-.47,7.42-3.64,9.07-8.14,4.08-11.16,6.86-22.58,6.48-34.49-.41-12.83-1.35-25.64-2.11-38.46-.22-3.7.34-4.38,3.88-4.46,2.55-.05,3.53,1.23,3.58,3.62.28,12.38.7,24.76.87,37.14.11,8.63-.8,17.32,0,25.86,1,10.41,5.27,20,10.65,29,.86,1.43,3.74,1.91,5.78,2.33,40.08,8.16,66.89,31.24,79.12,70.55,1.58,5.07,2.17,10.46,3,15.73A41.05,41.05,0,0,1,947.87,412.83Z"/></g><g class="cls-2"><path class="cls-3" d="M179.07,311.76c-.07,16.94-10.75,27-28.53,26.86-16-.13-25.19-10-25.17-27,0-16.69,9.63-27,25.27-27.14C167.23,284.31,179.14,295.75,179.07,311.76Z"/><path class="cls-3" d="M49.53,83.35C61,84.27,71.67,86,82,89.73c26.2,9.34,44.45,26.72,53.58,53.2a84.33,84.33,0,0,1,4.82,26.64,11,11,0,0,0,1.43,5.26,104.2,104.2,0,0,1,11.25,25.7c1.41-4.46,4.57-8,4.15-13.38a80.93,80.93,0,0,1,7.54-41.43c11.48-24.25,31.05-39.15,56.41-46.62,7.49-2.2,15.38-3,23.77-4.59-.31,4.34-.33,7.91-.84,11.4-2.54,17.46-8.77,33.44-19.68,47.42-12.06,15.47-27.88,25.6-46.18,32.11-2.73,1-5.47,2.32-8.29,2.57-5.3.48-7.43,3.64-9.08,8.15-4.07,11.16-6.85,22.57-6.48,34.48.41,12.83,1.35,25.65,2.12,38.46.22,3.71-.35,4.39-3.88,4.46-2.56.06-3.53-1.22-3.59-3.61-.28-12.38-.69-24.76-.86-37.15-.12-8.62.79-17.32,0-25.86-1-10.4-5.27-20-10.64-29-.86-1.43-3.74-1.91-5.79-2.33-40.08-8.16-66.89-31.24-79.12-70.55-1.57-5.07-2.16-10.46-3-15.73A39.61,39.61,0,0,1,49.53,83.35Z"/></g><g class="cls-2"><path class="cls-3" d="M355.53,184.3c.08-16.94,10.76-27,28.54-26.86,16,.13,25.19,10,25.17,27,0,16.68-9.63,27-25.27,27.13C367.38,211.75,355.47,200.31,355.53,184.3Z"/><path class="cls-3" d="M485.08,412.71c-11.43-.92-22.14-2.69-32.48-6.38-26.2-9.34-44.45-26.72-53.58-53.2a84.05,84.05,0,0,1-4.82-26.64,11,11,0,0,0-1.43-5.26,104.2,104.2,0,0,1-11.25-25.7c-1.41,4.46-4.57,8-4.15,13.38a80.87,80.87,0,0,1-7.54,41.42c-11.48,24.26-31.05,39.16-56.41,46.62-7.49,2.21-15.39,3-23.77,4.6.3-4.34.33-7.91.84-11.4,2.54-17.47,8.77-33.44,19.68-47.43,12.06-15.46,27.88-25.59,46.18-32.1,2.73-1,5.47-2.32,8.29-2.57,5.3-.48,7.43-3.64,9.07-8.15,4.08-11.16,6.86-22.57,6.49-34.48-.41-12.83-1.36-25.65-2.12-38.47-.22-3.7.35-4.38,3.88-4.45,2.56-.06,3.53,1.22,3.59,3.61.28,12.38.69,24.76.86,37.14.12,8.63-.79,17.33,0,25.86,1,10.41,5.27,20,10.64,29,.86,1.43,3.74,1.91,5.79,2.33C443,328.57,469.76,351.65,482,391c1.58,5.07,2.17,10.46,3,15.73A39.59,39.59,0,0,1,485.08,412.71Z"/></g><g class="cls-2"><path class="cls-3" d="M1104.33,311.76c-.07,16.94-10.76,27-28.54,26.86-16-.13-25.19-10-25.16-27,0-16.69,9.63-27,25.26-27.14C1092.48,284.31,1104.4,295.75,1104.33,311.76Z"/><path class="cls-3" d="M974.79,83.35c11.43.92,22.13,2.69,32.48,6.38,26.19,9.34,44.45,26.72,53.58,53.2a84,84,0,0,1,4.81,26.64,11,11,0,0,0,1.43,5.26,104.2,104.2,0,0,1,11.25,25.7c1.42-4.46,4.58-8,4.16-13.38a80.92,80.92,0,0,1,7.53-41.43c11.49-24.25,31.06-39.15,56.41-46.62,7.49-2.2,15.39-3,23.78-4.59-.31,4.34-.33,7.91-.84,11.4-2.54,17.46-8.78,33.44-19.69,47.42-12.06,15.47-27.88,25.6-46.18,32.11-2.73,1-5.47,2.32-8.29,2.57-5.29.48-7.42,3.64-9.07,8.15-4.08,11.16-6.86,22.57-6.48,34.48.41,12.83,1.35,25.65,2.11,38.46.22,3.71-.34,4.39-3.88,4.46-2.55.06-3.53-1.22-3.58-3.61-.28-12.38-.7-24.76-.87-37.15-.11-8.62.8-17.32,0-25.86-1-10.4-5.27-20-10.65-29-.86-1.43-3.74-1.91-5.78-2.33-40.08-8.16-66.89-31.24-79.12-70.55-1.58-5.07-2.17-10.46-3-15.73A39.61,39.61,0,0,1,974.79,83.35Z"/></g><g class="cls-2"><path class="cls-3" d="M1280.79,184.3c.07-16.94,10.76-27,28.54-26.86,16,.13,25.19,10,25.17,27,0,16.68-9.64,27-25.27,27.13C1292.64,211.75,1280.72,200.31,1280.79,184.3Z"/><path class="cls-3" d="M1410.33,412.71c-11.43-.92-22.13-2.69-32.48-6.38-26.19-9.34-44.45-26.72-53.58-53.2a84,84,0,0,1-4.81-26.64,11,11,0,0,0-1.43-5.26,104.2,104.2,0,0,1-11.25-25.7c-1.42,4.46-4.58,8-4.16,13.38a80.87,80.87,0,0,1-7.53,41.42c-11.49,24.26-31.06,39.16-56.41,46.62-7.49,2.21-15.39,3-23.77,4.6.3-4.34.33-7.91.83-11.4,2.54-17.47,8.78-33.44,19.69-47.43,12.06-15.46,27.88-25.59,46.18-32.1,2.73-1,5.47-2.32,8.29-2.57,5.29-.48,7.42-3.64,9.07-8.15,4.08-11.16,6.86-22.57,6.48-34.48-.41-12.83-1.35-25.65-2.11-38.47-.22-3.7.35-4.38,3.88-4.45,2.55-.06,3.53,1.22,3.58,3.61.28,12.38.7,24.76.87,37.14.11,8.63-.8,17.33,0,25.86,1,10.41,5.27,20,10.65,29,.86,1.43,3.74,1.91,5.78,2.33,40.08,8.16,66.89,31.24,79.12,70.55,1.58,5.07,2.17,10.46,3,15.73A41.05,41.05,0,0,1,1410.33,412.71Z"/></g><g class="cls-2"><path class="cls-3" d="M1567.13,311.88c-.08,16.94-10.76,27-28.54,26.85-16-.12-25.19-10-25.17-27,0-16.68,9.63-27,25.27-27.13C1555.28,284.42,1567.19,295.87,1567.13,311.88Z"/><path class="cls-3" d="M1437.58,83.47c11.43.92,22.14,2.69,32.48,6.38,26.2,9.34,44.46,26.72,53.58,53.2a84,84,0,0,1,4.82,26.64,11,11,0,0,0,1.43,5.25,104.53,104.53,0,0,1,11.25,25.7c1.41-4.45,4.57-8,4.15-13.37a80.91,80.91,0,0,1,7.54-41.43c11.48-24.25,31.05-39.15,56.41-46.62,7.49-2.2,15.39-3,23.77-4.59-.3,4.34-.33,7.9-.84,11.4-2.54,17.46-8.77,33.44-19.68,47.42-12.06,15.46-27.88,25.59-46.18,32.11-2.73,1-5.47,2.32-8.29,2.57-5.3.48-7.43,3.64-9.07,8.15-4.08,11.16-6.86,22.57-6.48,34.48.4,12.83,1.35,25.64,2.11,38.46.22,3.71-.35,4.39-3.88,4.46-2.56.06-3.53-1.22-3.59-3.62-.28-12.38-.69-24.76-.86-37.14-.12-8.62.8-17.32,0-25.86-1-10.41-5.27-20-10.64-29-.86-1.43-3.74-1.91-5.79-2.33-40.08-8.17-66.88-31.24-79.11-70.55-1.58-5.07-2.17-10.46-3-15.73A39.61,39.61,0,0,1,1437.58,83.47Z"/></g><g class="cls-2"><path class="cls-3" d="M1743.59,184.41c.07-16.94,10.75-27,28.53-26.85,16,.13,25.19,10,25.17,27,0,16.68-9.63,27-25.27,27.13C1755.43,211.87,1743.52,200.43,1743.59,184.41Z"/><path class="cls-3" d="M1873.13,412.83c-11.43-.92-22.14-2.69-32.48-6.38-26.2-9.34-44.45-26.73-53.58-53.2a84.33,84.33,0,0,1-4.82-26.64,11,11,0,0,0-1.43-5.26,104,104,0,0,1-11.24-25.7c-1.42,4.46-4.58,8-4.16,13.37a80.79,80.79,0,0,1-7.54,41.43c-11.48,24.26-31.05,39.16-56.41,46.62-7.48,2.21-15.38,3-23.77,4.6.31-4.34.33-7.91.84-11.41,2.54-17.46,8.77-33.44,19.68-47.42,12.07-15.46,27.88-25.59,46.18-32.1,2.74-1,5.48-2.32,8.29-2.58,5.3-.47,7.43-3.64,9.08-8.14,4.07-11.16,6.86-22.58,6.48-34.49-.41-12.83-1.35-25.64-2.12-38.46-.22-3.7.35-4.38,3.88-4.46,2.56-.05,3.53,1.23,3.59,3.62.28,12.38.69,24.76.86,37.14.12,8.63-.79,17.32,0,25.86,1,10.41,5.27,20,10.64,29,.86,1.43,3.74,1.91,5.79,2.33,40.08,8.16,66.89,31.24,79.12,70.55,1.57,5.07,2.16,10.46,3,15.73A39.59,39.59,0,0,1,1873.13,412.83Z"/></g></svg>