<svg id="Capa_1" data-name="Capa 1" xmlns="http://www.w3.org/2000/svg" viewBox="0 0 792 612"><defs><style>.cls-1{fill:#252651;}</style></defs><path class="cls-1" d="M451.07,480.11c-.12,29.26-18.58,46.63-49.3,46.39-27.61-.22-43.52-17.31-43.48-46.72,0-28.82,16.64-46.64,43.65-46.87C430.61,432.67,451.19,452.45,451.07,480.11Z"/><path class="cls-1" d="M227.27,85.5c19.75,1.59,38.25,4.65,56.12,11,45.25,16.14,76.79,46.17,92.56,91.91a145.11,145.11,0,0,1,8.32,46,18.92,18.92,0,0,0,2.47,9.08,179.89,179.89,0,0,1,19.43,44.4c2.45-7.7,7.91-13.89,7.18-23.1a139.74,139.74,0,0,1,13-71.57c19.84-41.9,53.64-67.65,97.45-80.54,12.93-3.81,26.58-5.22,41.07-7.94-.53,7.5-.57,13.66-1.45,19.7-4.39,30.17-15.16,57.77-34,81.93-20.84,26.71-48.16,44.21-79.78,55.46-4.72,1.68-9.45,4-14.32,4.44-9.15.83-12.83,6.29-15.68,14.08-7,19.28-11.85,39-11.19,59.57.7,22.17,2.33,44.3,3.65,66.45.38,6.4-.6,7.57-6.7,7.7-4.42.1-6.1-2.11-6.2-6.24-.48-21.39-1.2-42.78-1.49-64.17-.2-14.9,1.37-29.93-.06-44.68-1.75-18-9.11-34.59-18.39-50-1.49-2.47-6.46-3.3-10-4C300,230.85,253.73,191,232.6,123.07c-2.73-8.76-3.74-18.07-5.24-27.17C226.84,92.78,227.27,89.51,227.27,85.5Z"/></svg>