<svg id="Capa_1" data-name="Capa 1" xmlns="http://www.w3.org/2000/svg" viewBox="0 0 792 612"><defs><style>.cls-1{fill:#376eb4;}.cls-2{opacity:0.3;}.cls-3{fill:#252651;}</style></defs><rect class="cls-1" x="-5" y="-5" width="802" height="622"/><g class="cls-2"><path class="cls-3" d="M246.34,415.16c-.12,29.27-18.58,46.64-49.3,46.39-27.61-.22-43.52-17.31-43.48-46.71,0-28.82,16.64-46.65,43.65-46.87C225.87,367.73,246.46,387.5,246.34,415.16Z"/><path class="cls-3" d="M22.54,20.55c19.75,1.59,38.24,4.65,56.11,11,45.26,16.14,76.8,46.17,92.57,91.92a145.33,145.33,0,0,1,8.32,46,18.88,18.88,0,0,0,2.47,9.09c8.27,13.92,15,28.44,19.43,44.4,2.45-7.7,7.91-13.89,7.18-23.11a139.75,139.75,0,0,1,13-71.57c19.84-41.9,53.65-67.64,97.45-80.54C332,44,345.68,42.56,360.16,39.83c-.52,7.5-.57,13.66-1.44,19.7-4.39,30.17-15.16,57.77-34,81.93-20.84,26.71-48.17,44.21-79.78,55.46-4.72,1.68-9.46,4-14.33,4.45-9.14.82-12.83,6.29-15.67,14.07-7,19.29-11.85,39-11.2,59.58.71,22.16,2.34,44.3,3.65,66.44.38,6.41-.59,7.58-6.7,7.71-4.41.09-6.09-2.12-6.19-6.25-.49-21.39-1.2-42.78-1.49-64.17-.21-14.9,1.37-29.92-.07-44.68-1.75-18-9.1-34.59-18.38-50-1.49-2.48-6.46-3.31-10-4C95.31,165.91,49,126,27.87,58.13,25.14,49.37,24.12,40.06,22.62,31,22.11,27.84,22.54,24.56,22.54,20.55Z"/></g><g class="cls-2"><path class="cls-3" d="M551.19,195c.13-29.27,18.59-46.64,49.3-46.39,27.61.22,43.52,17.31,43.49,46.71,0,28.82-16.65,46.65-43.66,46.87C571.66,242.38,551.08,222.61,551.19,195Z"/><path class="cls-3" d="M775,589.55c-19.74-1.58-38.24-4.64-56.11-11-45.26-16.14-76.79-46.17-92.56-91.92a145.34,145.34,0,0,1-8.33-46,19,19,0,0,0-2.46-9.09c-8.28-13.92-15-28.44-19.44-44.4-2.44,7.7-7.9,13.89-7.18,23.11a139.65,139.65,0,0,1-13,71.57c-19.84,41.9-53.65,67.64-97.45,80.54-12.94,3.81-26.58,5.21-41.07,7.94.53-7.5.57-13.66,1.45-19.7,4.39-30.17,15.16-57.77,34-81.93,20.84-26.71,48.17-44.21,79.78-55.46,4.73-1.68,9.46-4,14.33-4.45,9.15-.82,12.83-6.29,15.67-14.07,7-19.29,11.85-39,11.2-59.58-.71-22.16-2.34-44.3-3.65-66.44-.38-6.41.6-7.58,6.7-7.71,4.42-.09,6.1,2.12,6.19,6.25.49,21.39,1.2,42.78,1.5,64.17.2,14.9-1.38,29.92.06,44.68,1.75,18,9.1,34.59,18.39,50,1.48,2.48,6.46,3.31,10,4,69.23,14.1,115.55,54,136.68,121.88,2.72,8.76,3.74,18.07,5.24,27.18C775.42,582.27,775,585.55,775,589.55Z"/></g></svg>